<svg version="1.1" id="Слой_1" xmlns="http://www.w3.org/2000/svg" x="0" y="0" width="384" height="384" xml:space="preserve"><path d="M56.528 304.098L305.43 55.196c6.245-6.245 16.382-6.245 22.627 0 6.245 6.245 6.245 16.382 0 22.627L79.156 326.725c-6.245 6.245-16.382 6.245-22.627 0-6.246-6.245-6.246-16.382-.001-22.627z"/><path d="M305.43 328.14L56.528 79.238c-6.245-6.245-6.245-16.382 0-22.627s16.382-6.245 22.627 0l248.902 248.902c6.245 6.245 6.245 16.382 0 22.627-6.245 6.245-16.382 6.245-22.627 0z"/></svg>