<svg fill="#d9d9d9" version="1.1" id="Слой_1" xmlns="http://www.w3.org/2000/svg" x="0" y="0" width="512" height="512" xml:space="preserve"><path d="M363.48 355.234c18.676 0 33.867-15.195 33.867-33.867V190.633c0-18.672-15.191-33.867-33.867-33.867H148.52c-18.676 0-33.867 15.195-33.867 33.867v130.734c0 18.672 15.191 33.867 33.867 33.867h214.96zm-197.617-30l66.211-66.211 9.676 6.359a23.341 23.341 0 0012.969 3.938 23.34 23.34 0 0012.875-3.875l11.195-7.559 67.348 67.348H165.863zm201.489-127.136V304.02l-63.234-63.234 63.234-42.688zm-36.836-11.332l-75.848 51.207-77.914-51.207h153.762zm-185.868 14.8l61.824 40.633-61.824 61.82V201.566z"/><path d="M437.02 74.98C388.668 26.629 324.379 0 256 0c-56.941 0-111.152 18.52-155.629 52.691l.211-8.875c.195-8.281-6.355-15.156-14.641-15.352-8.289-.184-15.152 6.355-15.352 14.641l-.844 35.582c-.273 11.547 8.176 21.238 19.652 22.543l39.277 4.359c7.527 0 14.02-5.656 14.887-13.313.934-8.23-4.98-15.66-13.215-16.594l-9.254-1.051C159.883 45.672 206.785 30 256 30c60.367 0 117.121 23.508 159.805 66.195C458.492 138.879 482 195.633 482 256c0 28.391-5.191 56.07-15.434 82.266-3.016 7.715.793 16.414 8.508 19.43a14.924 14.924 0 005.457 1.035c5.996 0 11.66-3.621 13.977-9.543C506.113 319.496 512 288.145 512 256c0-68.379-26.629-132.668-74.98-181.02zm-13.137 336.036l-39.789-4.656c-8.227-.961-15.68 4.93-16.645 13.156-.961 8.227 4.93 15.68 13.156 16.641l10.539 1.234C352.695 466.336 305.715 482 256 482c-60.367 0-117.121-23.508-159.805-66.195C53.508 373.121 30 316.367 30 256c0-37.25 9.25-74.168 26.754-106.762 3.918-7.297 1.18-16.391-6.121-20.309-7.297-3.922-16.395-1.184-20.313 6.117C10.484 171.988 0 213.813 0 256c0 68.379 26.629 132.668 74.98 181.02S187.621 512 256 512c56.965 0 110.797-18.191 154.699-51.785l-.148 7.027c-.172 8.281 6.398 15.141 14.684 15.313.105.004.215.004.32.004 8.137 0 14.816-6.512 14.992-14.688l.77-36.836c.218-10.226-7.278-18.836-17.434-20.019z"/></svg>