<svg fill="#d9d9d9" version="1.1" id="Capa_1" xmlns="http://www.w3.org/2000/svg" x="0" y="0" width="50" height="50" xml:space="preserve"><path d="M24.985 9.963c-5.71 0-10.347 4.695-10.347 10.454s4.637 10.464 10.347 10.464 10.347-4.695 10.347-10.454S30.695 9.963 24.985 9.963zm0 18.413c-4.343 0-7.866-3.57-7.866-7.948s3.533-7.948 7.866-7.948 7.866 3.57 7.866 7.948-3.523 7.948-7.866 7.948z"/><path d="M24.985 0c-.233 0-.476 0-.709.01C14.294.358 6.043 8.194 5.092 18.228a20.647 20.647 0 00.263 5.759s.03.235.142.675a19.467 19.467 0 001.336 3.969c2.055 4.92 6.56 12.5 16.34 20.704.516.43 1.164.665 1.832.665s1.316-.235 1.832-.665c9.77-8.194 14.275-15.784 16.32-20.663a19.946 19.946 0 001.346-4c.061-.245.101-.45.132-.644.244-1.258.365-2.547.365-3.836C44.98 9.063 36.01 0 24.985 0zm17.191 23.599c0 .02-.03.194-.101.511a18.496 18.496 0 01-1.195 3.55c-1.954 4.664-6.246 11.876-15.631 19.742a.403.403 0 01-.253.092.423.423 0 01-.253-.092c-9.385-7.876-13.688-15.088-15.652-19.783A17.746 17.746 0 017.907 24.1c-.061-.266-.091-.43-.101-.481 0-.02-.01-.041-.01-.061a18.157 18.157 0 01-.234-5.084c.84-8.787 8.059-15.651 16.806-15.957C34.299 2.169 42.5 10.229 42.5 20.203c0 1.125-.112 2.25-.324 3.396z"/></svg>