<svg fill="#d5aa6d" version="1.1" id="Layer_1" xmlns="http://www.w3.org/2000/svg" x="0" y="0" width="330" height="330" xml:space="preserve"><path id="XMLID_22_" d="M325.606 304.394L223.329 202.117c16.706-21.256 26.682-48.04 26.682-77.111C250.011 56.077 193.934 0 125.005 0 56.077 0 0 56.077 0 125.005S56.077 250.01 125.005 250.01c29.07 0 55.855-9.975 77.111-26.681l102.278 102.277c2.928 2.93 6.767 4.394 10.606 4.394s7.678-1.464 10.606-4.394c5.858-5.857 5.858-15.355 0-21.212zM30 125.005C30 72.619 72.619 30 125.005 30s95.006 42.619 95.006 95.005-42.62 95.005-95.006 95.005S30 177.391 30 125.005z"/></svg>