<svg xmlns="http://www.w3.org/2000/svg" width="536" height="737"><defs><clipPath id="tdura"><path fill="none" d="M420.377 640.054c-80.404 64.16-152.264 95.662-151.922 96.975-.386-1.394-71.73-31.618-152.74-96.291C-8.918 541.236.177 423.198.177 423.198V55.69c147.354-74.345 388.525-74.26 535.67-.06v367.123s9.089 117.91-115.47 217.3zm-151.922 96.975zm158.56-317.871v-289.77c-87.294-43.684-230.37-43.736-317.788.035v290s-5.395 69.497 68.543 128.075c48.062 38.08 90.385 55.872 90.616 56.693-.205-.774 42.428-19.32 90.127-57.095 73.895-58.514 68.503-127.938 68.503-127.938zM268.386 604.19z"/></clipPath></defs><g opacity=".1" fill="none"><path d="M420.377 640.054c-80.404 64.16-152.264 95.662-151.922 96.975-.386-1.394-71.73-31.618-152.74-96.291C-8.918 541.236.177 423.198.177 423.198V55.69c147.354-74.345 388.525-74.26 535.67-.06v367.123s9.089 117.91-115.47 217.3zm-151.922 96.975zm158.56-317.871v-289.77c-87.294-43.684-230.37-43.736-317.788.035v290s-5.395 69.497 68.543 128.075c48.062 38.08 90.385 55.872 90.616 56.693-.205-.774 42.428-19.32 90.127-57.095 73.895-58.514 68.503-127.938 68.503-127.938zM268.386 604.19z"/><path stroke="#d5aa6d" stroke-linecap="round" stroke-linejoin="round" stroke-miterlimit="20" stroke-width="6" d="M420.377 640.054c-80.404 64.16-152.264 95.662-151.922 96.975-.386-1.394-71.73-31.618-152.74-96.291C-8.918 541.236.177 423.198.177 423.198V55.69c147.354-74.345 388.525-74.26 535.67-.06v367.123s9.089 117.91-115.47 217.3zm-151.922 96.975s0 0 0 0 0 0 0 0zm158.56-317.871v-289.77c-87.294-43.684-230.37-43.736-317.788.035v290s-5.395 69.497 68.543 128.075c48.062 38.08 90.385 55.872 90.616 56.693-.205-.774 42.428-19.32 90.127-57.095 73.895-58.514 68.503-127.938 68.503-127.938zM268.386 604.19a.005.005 0 000 0z" clip-path="url(&quot;#tdura&quot;)"/></g></svg>