<svg fill="#d5aa6d" version="1.1" id="Слой_1" xmlns="http://www.w3.org/2000/svg" x="0" y="0" width="512" height="512" xml:space="preserve"><path d="M437.02 74.98C388.668 26.629 324.379 0 256 0S123.332 26.629 74.98 74.98 0 187.621 0 256s26.629 132.668 74.98 181.02S187.621 512 256 512c2.063 0 4.156-.023 6.227-.074 8.285-.203 14.836-7.078 14.633-15.359-.199-8.281-7.066-14.824-15.355-14.633-1.833.043-3.685.066-5.505.066-124.617 0-226-101.383-226-226S131.383 30 256 30s226 101.383 226 226c0 45.492-13.52 89.426-39.094 127.051-4.988 7.34-11.68 11.531-20.457 12.816-8.781 1.289-16.395-.809-23.277-6.402l-11.883-9.66a114.733 114.733 0 004.191-3.535c8.816-7.828 13.203-18.617 12.352-30.379-.855-11.762-6.75-21.805-16.605-28.281l-47.512-31.223c-13.414-8.816-30.832-8.047-43.348 1.91-7.035 5.598-16.754 5.047-23.113-1.309l-48.242-48.246c-6.355-6.355-6.906-16.074-1.309-23.109 9.957-12.516 10.727-29.934 1.91-43.348l-31.223-47.512c-6.477-9.855-16.52-15.754-28.281-16.605-11.766-.855-22.551 3.535-30.379 12.352-38.613 43.48-36.633 109.762 4.5 150.895L240.586 371.77c21.402 21.402 49.609 32.207 77.875 32.203 13.988 0 27.98-2.672 41.176-7.988l20.605 16.758c13.387 10.883 29.488 15.313 46.559 12.813 17.07-2.504 31.219-11.367 40.918-25.637C496.688 357.297 512 307.531 512 256c0-68.379-26.629-132.668-74.98-181.02zM261.801 350.559l-100.356-100.36c-29.926-29.922-31.367-78.133-3.285-109.758 1.457-1.645 3.008-2.375 5.078-2.375.227 0 .461.008.703.023 2.43.176 4.039 1.121 5.379 3.16l31.223 47.512c1.73 2.633 1.609 5.773-.316 8.191-15.012 18.867-13.477 45.953 3.574 63.004l48.238 48.242c17.055 17.051 44.141 18.586 63.008 3.574 2.418-1.926 5.559-2.047 8.191-.316l47.512 31.223c6.063 3.758 3.137 8.832.813 11.16-4.832 4.828-10.652 8.289-16.48 11.289-.094.047-.191.09-.285.141-30.2 15.395-67.985 10.297-92.997-14.71z"/></svg>