<?xml version="1.0" encoding="utf-8"?><svg xmlns="http://www.w3.org/2000/svg" xmlns:xlink="http://www.w3.org/1999/xlink"><symbol viewBox="0 0 313.535 313.535" id="blank-house" xmlns="http://www.w3.org/2000/svg"><path d="M7.337 177.353c2.714 1.795 5.847 2.687 8.98 2.687s6.266-.897 8.98-2.687a16.191 16.191 0 002.556-2.094l10.639-10.639v74.515c0 32.841 29.028 60.591 63.387 60.591h114.868c33.668 0 61.064-27.184 61.064-60.591v-71.741l7.87 7.87c3.182 3.187 7.365 4.781 11.536 4.781s8.354-1.594 11.536-4.781c6.375-6.369 6.375-16.703 0-23.073L179.843 23.269c-11.928-11.922-30.78-12.526-43.583-2.094-.859.696-1.768 1.3-2.567 2.094L4.781 152.186c-6.375 6.369-6.375 16.703 0 23.073a16.303 16.303 0 002.556 2.094zm237.84-42.599V239.13c0 15.414-12.755 27.957-28.43 27.957H101.879c-16.382.005-30.752-13.059-30.752-27.951v-107.15l85.644-85.638 88.406 88.406z"/></symbol><symbol class="bsvg-inline--fa bfa-eye bfa-w-18" viewBox="0 0 576 512" id="eye-regular" xmlns="http://www.w3.org/2000/svg"><path d="M288 144a110.94 110.94 0 00-31.24 5 55.4 55.4 0 017.24 27 56 56 0 01-56 56 55.4 55.4 0 01-27-7.24A111.71 111.71 0 10288 144zm284.52 97.4C518.29 135.59 410.93 64 288 64S57.68 135.64 3.48 241.41a32.35 32.35 0 000 29.19C57.71 376.41 165.07 448 288 448s230.32-71.64 284.52-177.41a32.35 32.35 0 000-29.19zM288 400c-98.65 0-189.09-55-237.93-144C98.91 167 189.34 112 288 112s189.09 55 237.93 144C477.1 345 386.66 400 288 400z"/></symbol><symbol class="csvg-inline--fa cfa-facebook-f cfa-w-10" viewBox="0 0 320 512" id="facebook-f-brands" xmlns="http://www.w3.org/2000/svg"><path d="M279.14 288l14.22-92.66h-88.91v-60.13c0-25.35 12.42-50.06 52.24-50.06h40.42V6.26S260.43 0 225.36 0c-73.22 0-121.08 44.38-121.08 124.72v70.62H22.89V288h81.39v224h100.17V288z"/></symbol><symbol class="dsvg-inline--fa dfa-get-pocket dfa-w-14" viewBox="0 0 448 512" id="get-pocket-brands" xmlns="http://www.w3.org/2000/svg"><path d="M407.6 64h-367C18.5 64 0 82.5 0 104.6v135.2C0 364.5 99.7 464 224.2 464c124 0 223.8-99.5 223.8-224.2V104.6c0-22.4-17.7-40.6-40.4-40.6zm-162 268.5c-12.4 11.8-31.4 11.1-42.4 0C89.5 223.6 88.3 227.4 88.3 209.3c0-16.9 13.8-30.7 30.7-30.7 17 0 16.1 3.8 105.2 89.3 90.6-86.9 88.6-89.3 105.5-89.3 16.9 0 30.7 13.8 30.7 30.7 0 17.8-2.9 15.7-114.8 123.2z"/></symbol><symbol class="esvg-inline--fa efa-instagram efa-w-14" viewBox="0 0 448 512" id="instagram-brands" xmlns="http://www.w3.org/2000/svg"><path d="M224.1 141c-63.6 0-114.9 51.3-114.9 114.9s51.3 114.9 114.9 114.9S339 319.5 339 255.9 287.7 141 224.1 141zm0 189.6c-41.1 0-74.7-33.5-74.7-74.7s33.5-74.7 74.7-74.7 74.7 33.5 74.7 74.7-33.6 74.7-74.7 74.7zm146.4-194.3c0 14.9-12 26.8-26.8 26.8-14.9 0-26.8-12-26.8-26.8s12-26.8 26.8-26.8 26.8 12 26.8 26.8zm76.1 27.2c-1.7-35.9-9.9-67.7-36.2-93.9-26.2-26.2-58-34.4-93.9-36.2-37-2.1-147.9-2.1-184.9 0-35.8 1.7-67.6 9.9-93.9 36.1s-34.4 58-36.2 93.9c-2.1 37-2.1 147.9 0 184.9 1.7 35.9 9.9 67.7 36.2 93.9s58 34.4 93.9 36.2c37 2.1 147.9 2.1 184.9 0 35.9-1.7 67.7-9.9 93.9-36.2 26.2-26.2 34.4-58 36.2-93.9 2.1-37 2.1-147.8 0-184.8zM398.8 388c-7.8 19.6-22.9 34.7-42.6 42.6-29.5 11.7-99.5 9-132.1 9s-102.7 2.6-132.1-9c-19.6-7.8-34.7-22.9-42.6-42.6-11.7-29.5-9-99.5-9-132.1s-2.6-102.7 9-132.1c7.8-19.6 22.9-34.7 42.6-42.6 29.5-11.7 99.5-9 132.1-9s102.7-2.6 132.1 9c19.6 7.8 34.7 22.9 42.6 42.6 11.7 29.5 9 99.5 9 132.1s2.7 102.7-9 132.1z"/></symbol><symbol class="fsvg-inline--fa ffa-linkedin-in ffa-w-14" viewBox="0 0 448 512" id="linkedin-in-brands" xmlns="http://www.w3.org/2000/svg"><path d="M100.28 448H7.4V148.9h92.88zM53.79 108.1C24.09 108.1 0 83.5 0 53.8a53.79 53.79 0 01107.58 0c0 29.7-24.1 54.3-53.79 54.3zM447.9 448h-92.68V302.4c0-34.7-.7-79.2-48.29-79.2-48.29 0-55.69 37.7-55.69 76.7V448h-92.78V148.9h89.08v40.8h1.3c12.4-23.5 42.69-48.3 87.88-48.3 94 0 111.28 61.9 111.28 142.3V448z"/></symbol><symbol viewBox="0 0 512 512" id="message" xmlns="http://www.w3.org/2000/svg"><path d="M363.48 355.234c18.676 0 33.867-15.195 33.867-33.867V190.633c0-18.672-15.191-33.867-33.867-33.867H148.52c-18.676 0-33.867 15.195-33.867 33.867v130.734c0 18.672 15.191 33.867 33.867 33.867h214.96zm-197.617-30l66.211-66.211 9.676 6.359a23.341 23.341 0 0012.969 3.938 23.34 23.34 0 0012.875-3.875l11.195-7.559 67.348 67.348H165.863zm201.489-127.136V304.02l-63.234-63.234 63.234-42.688zm-36.836-11.332l-75.848 51.207-77.914-51.207h153.762zm-185.868 14.8l61.824 40.633-61.824 61.82V201.566z"/><path d="M437.02 74.98C388.668 26.629 324.379 0 256 0c-56.941 0-111.152 18.52-155.629 52.691l.211-8.875c.195-8.281-6.355-15.156-14.641-15.352-8.289-.184-15.152 6.355-15.352 14.641l-.844 35.582c-.273 11.547 8.176 21.238 19.652 22.543l39.277 4.359c7.527 0 14.02-5.656 14.887-13.313.934-8.23-4.98-15.66-13.215-16.594l-9.254-1.051C159.883 45.672 206.785 30 256 30c60.367 0 117.121 23.508 159.805 66.195C458.492 138.879 482 195.633 482 256c0 28.391-5.191 56.07-15.434 82.266-3.016 7.715.793 16.414 8.508 19.43a14.924 14.924 0 005.457 1.035c5.996 0 11.66-3.621 13.977-9.543C506.113 319.496 512 288.145 512 256c0-68.379-26.629-132.668-74.98-181.02zm-13.137 336.036l-39.789-4.656c-8.227-.961-15.68 4.93-16.645 13.156-.961 8.227 4.93 15.68 13.156 16.641l10.539 1.234C352.695 466.336 305.715 482 256 482c-60.367 0-117.121-23.508-159.805-66.195C53.508 373.121 30 316.367 30 256c0-37.25 9.25-74.168 26.754-106.762 3.918-7.297 1.18-16.391-6.121-20.309-7.297-3.922-16.395-1.184-20.313 6.117C10.484 171.988 0 213.813 0 256c0 68.379 26.629 132.668 74.98 181.02S187.621 512 256 512c56.965 0 110.797-18.191 154.699-51.785l-.148 7.027c-.172 8.281 6.398 15.141 14.684 15.313.105.004.215.004.32.004 8.137 0 14.816-6.512 14.992-14.688l.77-36.836c.218-10.226-7.278-18.836-17.434-20.019z"/></symbol><symbol viewBox="0 0 50 50" id="placeholder" xmlns="http://www.w3.org/2000/svg"><path d="M24.985 9.963c-5.71 0-10.347 4.695-10.347 10.454s4.637 10.464 10.347 10.464 10.347-4.695 10.347-10.454S30.695 9.963 24.985 9.963zm0 18.413c-4.343 0-7.866-3.57-7.866-7.948s3.533-7.948 7.866-7.948 7.866 3.57 7.866 7.948-3.523 7.948-7.866 7.948z"/><path d="M24.985 0c-.233 0-.476 0-.709.01C14.294.358 6.043 8.194 5.092 18.228a20.647 20.647 0 00.263 5.759s.03.235.142.675a19.467 19.467 0 001.336 3.969c2.055 4.92 6.56 12.5 16.34 20.704.516.43 1.164.665 1.832.665s1.316-.235 1.832-.665c9.77-8.194 14.275-15.784 16.32-20.663a19.946 19.946 0 001.346-4c.061-.245.101-.45.132-.644.244-1.258.365-2.547.365-3.836C44.98 9.063 36.01 0 24.985 0zm17.191 23.599c0 .02-.03.194-.101.511a18.496 18.496 0 01-1.195 3.55c-1.954 4.664-6.246 11.876-15.631 19.742a.403.403 0 01-.253.092.423.423 0 01-.253-.092c-9.385-7.876-13.688-15.088-15.652-19.783A17.746 17.746 0 017.907 24.1c-.061-.266-.091-.43-.101-.481 0-.02-.01-.041-.01-.061a18.157 18.157 0 01-.234-5.084c.84-8.787 8.059-15.651 16.806-15.957C34.299 2.169 42.5 10.229 42.5 20.203c0 1.125-.112 2.25-.324 3.396z"/></symbol><symbol viewBox="0 0 330 330" id="search" xmlns="http://www.w3.org/2000/svg"><path d="M325.606 304.394L223.329 202.117c16.706-21.256 26.682-48.04 26.682-77.111C250.011 56.077 193.934 0 125.005 0 56.077 0 0 56.077 0 125.005S56.077 250.01 125.005 250.01c29.07 0 55.855-9.975 77.111-26.681l102.278 102.277c2.928 2.93 6.767 4.394 10.606 4.394s7.678-1.464 10.606-4.394c5.858-5.857 5.858-15.355 0-21.212zM30 125.005C30 72.619 72.619 30 125.005 30s95.006 42.619 95.006 95.005-42.62 95.005-95.006 95.005S30 177.391 30 125.005z"/></symbol><symbol class="jsvg-inline--fa jfa-telegram-plane jfa-w-14" viewBox="0 0 448 512" id="telegram-plane-brands" xmlns="http://www.w3.org/2000/svg"><path d="M446.7 98.6l-67.6 318.8c-5.1 22.5-18.4 28.1-37.3 17.5l-103-75.9-49.7 47.8c-5.5 5.5-10.1 10.1-20.7 10.1l7.4-104.9 190.9-172.5c8.3-7.4-1.8-11.5-12.9-4.1L117.8 284 16.2 252.2c-22.1-6.9-22.5-22.1 4.6-32.7L418.2 66.4c18.4-6.9 34.5 4.1 28.5 32.2z"/></symbol><symbol viewBox="0 0 512 512" id="telephone" xmlns="http://www.w3.org/2000/svg"><path d="M437.02 74.98C388.668 26.629 324.379 0 256 0S123.332 26.629 74.98 74.98 0 187.621 0 256s26.629 132.668 74.98 181.02S187.621 512 256 512c2.063 0 4.156-.023 6.227-.074 8.285-.203 14.836-7.078 14.633-15.359-.199-8.281-7.066-14.824-15.355-14.633-1.833.043-3.685.066-5.505.066-124.617 0-226-101.383-226-226S131.383 30 256 30s226 101.383 226 226c0 45.492-13.52 89.426-39.094 127.051-4.988 7.34-11.68 11.531-20.457 12.816-8.781 1.289-16.395-.809-23.277-6.402l-11.883-9.66a114.733 114.733 0 004.191-3.535c8.816-7.828 13.203-18.617 12.352-30.379-.855-11.762-6.75-21.805-16.605-28.281l-47.512-31.223c-13.414-8.816-30.832-8.047-43.348 1.91-7.035 5.598-16.754 5.047-23.113-1.309l-48.242-48.246c-6.355-6.355-6.906-16.074-1.309-23.109 9.957-12.516 10.727-29.934 1.91-43.348l-31.223-47.512c-6.477-9.855-16.52-15.754-28.281-16.605-11.766-.855-22.551 3.535-30.379 12.352-38.613 43.48-36.633 109.762 4.5 150.895L240.586 371.77c21.402 21.402 49.609 32.207 77.875 32.203 13.988 0 27.98-2.672 41.176-7.988l20.605 16.758c13.387 10.883 29.488 15.313 46.559 12.813 17.07-2.504 31.219-11.367 40.918-25.637C496.688 357.297 512 307.531 512 256c0-68.379-26.629-132.668-74.98-181.02zM261.801 350.559l-100.356-100.36c-29.926-29.922-31.367-78.133-3.285-109.758 1.457-1.645 3.008-2.375 5.078-2.375.227 0 .461.008.703.023 2.43.176 4.039 1.121 5.379 3.16l31.223 47.512c1.73 2.633 1.609 5.773-.316 8.191-15.012 18.867-13.477 45.953 3.574 63.004l48.238 48.242c17.055 17.051 44.141 18.586 63.008 3.574 2.418-1.926 5.559-2.047 8.191-.316l47.512 31.223c6.063 3.758 3.137 8.832.813 11.16-4.832 4.828-10.652 8.289-16.48 11.289-.094.047-.191.09-.285.141-30.2 15.395-67.985 10.297-92.997-14.71z"/></symbol><symbol class="lsvg-inline--fa lfa-twitter lfa-w-16" viewBox="0 0 512 512" id="twitter-brands" xmlns="http://www.w3.org/2000/svg"><path d="M459.37 151.716c.325 4.548.325 9.097.325 13.645 0 138.72-105.583 298.558-298.558 298.558-59.452 0-114.68-17.219-161.137-47.106 8.447.974 16.568 1.299 25.34 1.299 49.055 0 94.213-16.568 130.274-44.832-46.132-.975-84.792-31.188-98.112-72.772 6.498.974 12.995 1.624 19.818 1.624 9.421 0 18.843-1.3 27.614-3.573-48.081-9.747-84.143-51.98-84.143-102.985v-1.299c13.969 7.797 30.214 12.67 47.431 13.319-28.264-18.843-46.781-51.005-46.781-87.391 0-19.492 5.197-37.36 14.294-52.954 51.655 63.675 129.3 105.258 216.365 109.807-1.624-7.797-2.599-15.918-2.599-24.04 0-57.828 46.782-104.934 104.934-104.934 30.213 0 57.502 12.67 76.67 33.137 23.715-4.548 46.456-13.32 66.599-25.34-7.798 24.366-24.366 44.833-46.132 57.827 21.117-2.273 41.584-8.122 60.426-16.243-14.292 20.791-32.161 39.308-52.628 54.253z"/></symbol><symbol class="msvg-inline--fa mfa-whatsapp mfa-w-14" viewBox="0 0 448 512" id="whatsapp-brands" xmlns="http://www.w3.org/2000/svg"><path d="M380.9 97.1C339 55.1 283.2 32 223.9 32c-122.4 0-222 99.6-222 222 0 39.1 10.2 77.3 29.6 111L0 480l117.7-30.9c32.4 17.7 68.9 27 106.1 27h.1c122.3 0 224.1-99.6 224.1-222 0-59.3-25.2-115-67.1-157zm-157 341.6c-33.2 0-65.7-8.9-94-25.7l-6.7-4-69.8 18.3L72 359.2l-4.4-7c-18.5-29.4-28.2-63.3-28.2-98.2 0-101.7 82.8-184.5 184.6-184.5 49.3 0 95.6 19.2 130.4 54.1 34.8 34.9 56.2 81.2 56.1 130.5 0 101.8-84.9 184.6-186.6 184.6zm101.2-138.2c-5.5-2.8-32.8-16.2-37.9-18-5.1-1.9-8.8-2.8-12.5 2.8-3.7 5.6-14.3 18-17.6 21.8-3.2 3.7-6.5 4.2-12 1.4-32.6-16.3-54-29.1-75.5-66-5.7-9.8 5.7-9.1 16.3-30.3 1.8-3.7.9-6.9-.5-9.7-1.4-2.8-12.5-30.1-17.1-41.2-4.5-10.8-9.1-9.3-12.5-9.5-3.2-.2-6.9-.2-10.6-.2-3.7 0-9.7 1.4-14.8 6.9-5.1 5.6-19.4 19-19.4 46.3 0 27.3 19.9 53.7 22.6 57.4 2.8 3.7 39.1 59.7 94.8 83.8 35.2 15.2 49 16.5 66.6 13.9 10.7-1.6 32.8-13.4 37.4-26.4 4.6-13 4.6-24.1 3.2-26.4-1.3-2.5-5-3.9-10.5-6.6z"/></symbol></svg>